<?xml version="1.0" encoding="UTF-8"?>
<svg id="katman_1" data-name="katman 1" xmlns="http://www.w3.org/2000/svg" viewBox="0 0 151.88 129.27">
  <defs>
    <style>
      .cls-1 {
        fill: #f4d240;
      }
    </style>
  </defs>
  <ellipse class="cls-1" cx="104.41" cy="81.36" rx="47.25" ry="48.11" transform="translate(-26.69 63.11) rotate(-30)"/>
  <path class="cls-1" d="M52.24,33.6c3.31,5.73,1.34,13.05-4.38,16.36-5.73,3.31-13.05,1.34-16.36-4.38-3.31-5.73-1.34-13.05,4.38-16.36,5.73-3.31,13.05-1.34,16.36,4.38Z"/>
  <path class="cls-1" d="M11.17,42.89c1.65,2.86,.67,6.53-2.19,8.18-2.86,1.65-6.53,.67-8.18-2.19-1.65-2.86-.67-6.53,2.19-8.18,2.86-1.65,6.53-.67,8.18,2.19Z"/>
  <path class="cls-1" d="M28.01,2.99c1.65,2.86,.67,6.53-2.19,8.18-2.86,1.65-6.53,.67-8.18-2.19s-.67-6.53,2.19-8.18c2.86-1.65,6.53-.67,8.18,2.19Z"/>
</svg>