<?xml version="1.0" encoding="UTF-8"?>
<svg id="katman_1" data-name="katman 1" xmlns="http://www.w3.org/2000/svg" viewBox="0 0 60.58 143.06">
  <defs>
    <style>
      .cls-1 {
        fill: #f4d240;
      }
    </style>
  </defs>
  <path class="cls-1" d="M31.61,134.08c1.65,2.86,.67,6.53-2.19,8.18-2.86,1.65-6.53,.67-8.18-2.19-1.65-2.86-.67-6.53,2.19-8.18,2.86-1.65,6.53-.67,8.18,2.19Z"/>
  <path class="cls-1" d="M59.78,115.18c1.65,2.86,.67,6.53-2.19,8.18-2.86,1.65-6.53,.67-8.18-2.19s-.67-6.53,2.19-8.18c2.86-1.65,6.53-.67,8.18,2.19Z"/>
  <circle class="cls-1" cx="20.41" cy="87.89" r="11.98" transform="translate(-69.76 84.64) rotate(-74.86)"/>
  <circle class="cls-1" cx="29.04" cy="29.04" r="29.03" transform="translate(-3.85 53.63) rotate(-81.8)"/>
</svg>